<?xml version="1.0" standalone="no"?>
<!DOCTYPE svg PUBLIC "-//W3C//DTD SVG 20010904//EN"
 "http://www.w3.org/TR/2001/REC-SVG-20010904/DTD/svg10.dtd">
<svg version="1.0" xmlns="http://www.w3.org/2000/svg"
 width="390.000000pt" height="133.000000pt" viewBox="0 0 390.000000 133.000000"
 preserveAspectRatio="xMidYMid meet">

<g transform="translate(0.000000,133.000000) scale(0.100000,-0.100000)"
fill="#000000" stroke="none">
<path d="M40 676 l0 -546 230 0 c130 0 252 5 282 11 123 26 224 104 250 193
16 55 15 162 -1 210 -24 71 -130 164 -188 167 -11 0 -4 7 17 16 93 40 140 113
140 217 0 87 -18 134 -70 186 -77 77 -106 83 -402 88 l-258 4 0 -546z m511
396 c52 -31 72 -80 67 -155 -4 -53 -8 -63 -40 -92 -46 -43 -106 -55 -263 -55
l-125 0 0 166 0 166 163 -4 c148 -3 165 -5 198 -26z m-10 -437 c84 -30 119
-85 119 -190 0 -73 -33 -133 -90 -165 -42 -23 -57 -25 -212 -28 l-168 -4 0
201 0 201 154 0 c113 0 165 -4 197 -15z"/>
<path d="M894 1176 c-69 -30 -99 -108 -68 -173 20 -40 42 -51 169 -90 47 -14
63 -24 73 -46 18 -37 8 -72 -24 -93 -33 -22 -126 -22 -178 0 -52 22 -56 21
-56 -13 0 -24 6 -31 33 -40 93 -29 194 -24 249 12 71 48 71 166 1 213 -18 12
-65 30 -105 39 -81 20 -108 37 -108 71 0 75 75 103 186 69 27 -8 50 -15 52
-15 1 0 2 13 2 30 0 25 -5 30 -37 39 -52 15 -152 13 -189 -3z"/>
<path d="M995 616 c-59 -17 -118 -75 -134 -132 -17 -61 -13 -163 8 -209 38
-84 128 -133 224 -121 73 8 121 35 125 69 4 33 3 33 -49 5 -57 -30 -147 -31
-186 -2 -50 38 -68 81 -68 164 1 117 45 175 142 186 40 5 58 1 106 -24 l58
-29 -3 31 c-2 24 -11 35 -40 49 -49 24 -123 30 -183 13z"/>
<path d="M1360 487 c-52 -34 -71 -76 -71 -151 0 -107 42 -166 129 -182 134
-25 229 140 160 276 -41 78 -147 106 -218 57z m145 -51 c49 -49 46 -163 -5
-208 -59 -54 -130 -25 -149 60 -12 59 -1 115 30 148 31 33 91 33 124 0z"/>
<path d="M1697 504 c-4 -4 -7 -83 -7 -176 l0 -168 30 0 30 0 0 121 c0 120 0
121 29 150 22 21 39 29 65 29 57 0 69 -29 74 -176 4 -123 5 -124 28 -124 24 0
24 2 24 98 0 153 23 202 96 202 58 0 69 -25 72 -171 l4 -129 30 0 31 0 -5 133
c-5 149 -17 186 -68 207 -46 19 -110 7 -140 -27 l-24 -28 -33 34 c-31 31 -37
33 -84 29 -33 -4 -58 -13 -74 -28 l-23 -22 -4 24 c-3 23 -36 37 -51 22z"/>
<path d="M2310 270 l0 -240 25 0 c25 0 25 1 25 92 l0 92 29 -28 c40 -38 103
-45 148 -17 47 29 73 88 73 161 0 74 -17 117 -61 154 -29 25 -39 28 -86 24
-38 -3 -60 -11 -78 -28 l-25 -23 0 26 c0 22 -5 27 -25 27 l-25 0 0 -240z m199
180 c57 -30 59 -186 4 -230 -83 -65 -176 39 -143 159 6 23 20 51 31 62 21 21
78 26 108 9z"/>
<path d="M2738 499 c-20 -8 -28 -18 -28 -36 0 -20 3 -24 18 -18 9 5 45 10 79
13 56 4 64 2 87 -21 43 -43 35 -53 -48 -60 -80 -6 -111 -17 -138 -51 -22 -26
-23 -87 -3 -126 28 -54 123 -64 185 -20 l30 21 0 -20 c0 -17 6 -21 30 -21 l30
0 -1 118 c0 186 -25 224 -147 229 -37 1 -79 -2 -94 -8z m182 -200 c0 -44 -56
-99 -101 -99 -43 0 -55 8 -68 43 -22 57 15 85 112 86 l57 1 0 -31z"/>
<path d="M3097 504 c-4 -4 -7 -83 -7 -176 l0 -168 30 0 30 0 0 121 c0 120 0
121 29 150 36 36 90 40 121 9 18 -18 20 -33 20 -150 l0 -130 30 0 30 0 0 128
c0 140 -13 185 -60 210 -37 19 -115 10 -145 -18 l-23 -22 -4 24 c-3 23 -36 37
-51 22z"/>
<path d="M3460 500 c0 -6 30 -84 66 -174 l67 -164 -19 -38 c-16 -32 -25 -40
-54 -44 -27 -4 -36 -10 -38 -28 -3 -20 1 -22 43 -22 34 0 52 6 68 22 21 21
187 417 187 446 0 9 -10 12 -26 10 -24 -3 -32 -16 -77 -130 -28 -71 -53 -128
-57 -128 -4 0 -29 57 -57 128 -45 114 -53 127 -77 130 -14 2 -26 -2 -26 -8z"/>
</g>
</svg>
